@startuml gof_bridge

'Copyright 2026 Takayoshi Matsuyama
'
'Licensed under the Apache License, Version 2.0 (the "License");
'you may not use this file except in compliance with the License.
'You may obtain a copy of the License at
'
'    http://www.apache.org/licenses/LICENSE-2.0
'
'Unless required by applicable law or agreed to in writing, software
'distributed under the License is distributed on an "AS IS" BASIS,
'WITHOUT WARRANTIES OR CONDITIONS OF ANY KIND, either express or implied.
'See the License for the specific language governing permissions and
'limitations under the License.

title GoF - Structural #02 - Bridge

interface Implementor {
    +operation_impl(): void
}

class ConcreteImplementorA {
    +operation_impl(): void
}

class ConcreteImplementorB {
    +operation_impl(): void
}

Implementor <|.. ConcreteImplementorA
Implementor <|.. ConcreteImplementorB

class Abstraction {
    -implementor: Implementor
    +operation(): void
}

class RefinedAbstraction {
    +operation(): void
}

Abstraction <|.. RefinedAbstraction

Abstraction --> Implementor
@enduml